If you must download and send. Keep active torrents for other! Thanks
Se si scarica devi inviare. Mantenere torrents attivi per altri! Grazie
Daca descarci trebuie sa trimiti. Pastreaza torrentul activ si pentru alti! Mersi
------------------------------------------------------------------------------------------------------


Il Cavaliere Oscuro.The Dark Knight.2008.BRRip [Ita] H264-MarGelaTu.mp4 - http://www.imdb.com/title/tt0468569/
--------------------------------------------------------------------------------------------------------------

Format : MPEG-4
Format profile : Base Media / Version 2
Codec ID : mp42
File size : 1.98 GiB
Duration : 2h 25mn
Overall bit rate : 1 945 Kbps

Video #1
ID : 1
Format : AVC
Format/Info : Advanced Video Codec
Format profile : High@L3.1
Format settings, CABAC : Yes
Format settings, ReFrames : 3 frames
Codec ID : avc1
Codec ID/Info : Advanced Video Coding
Duration : 2h 25mn
Bit rate mode : Variable
Bit rate : 1 781 Kbps
Width : 1 280 pixels
Height : 528 pixels
Display aspect ratio : 2.40:1
Frame rate mode : Variable
Frame rate : 25.000 fps
Minimum frame rate : 20.000 fps
Maximum frame rate : 25.000 fps
Resolution : 24 bits
Colorimetry : 4:2:0
Scan type : Progressive
Bits/(Pixel*Frame) : 0.105
Stream size : 1.82 GiB (92%)
Writing library : x264 core 79

Audio #2
ID : 2
Format : AAC
Format/Info : Advanced Audio Codec
Format version : Version 4
Format profile : LC
Format settings, SBR : No
Codec ID : 40
Duration : 2h 25mn
Bit rate mode : Variable
Bit rate : 160 Kbps
Maximum bit rate : 266 Kbps
Channel(s) : 2 channels
Channel positions : L R
Sampling rate : 48.0 KHz
Resolution : 16 bits
Stream size : 167 MiB (8%)
Language : Italian